<?xml version="1.0" standalone="no"?>
<!-- Generator: Adobe Fireworks 10, Export SVG Extension by Aaron Beall (http://fireworks.abeall.com) . Version: 0.6.1  -->
<!DOCTYPE svg PUBLIC "-//W3C//DTD SVG 1.1//EN" "http://www.w3.org/Graphics/SVG/1.1/DTD/svg11.dtd">
<svg id="lvl1.fw-Page%201" viewBox="0 0 1300 975" style="background-color:#ffffff00" version="1.1"
	xmlns="http://www.w3.org/2000/svg" xmlns:xlink="http://www.w3.org/1999/xlink" xml:space="preserve"
	x="0px" y="0px" width="1300px" height="975px"
>
	<g id="Layer%201">
		<path d="M 200.6875 950.625 L 199.875 936.8125 L 214.5 932.75 L 215.3125 917.3125 L 237.25 910 L 250.25 900.25 L 316.875 914.0625 L 394.875 939.25 L 410.3125 944.9375 L 432.25 940.875 L 459.0625 950.625 L 442.8125 964.4375 Z" stroke="#aaaab7" stroke-width="2" fill="#aaaab7"/>
		<path d="M 440.375 723.125 L 421.6875 751.5625 L 380.25 748.3125 L 358.3125 758.875 L 304.6875 747.5 L 290.875 764.5625 L 229.9375 757.25 L 209.625 767.8125 L 208.8125 732.0625 L 440.375 723.125 Z" stroke="#aaaab7" stroke-width="2" fill="#aaaab7"/>
		<path d="M 156.8125 208 L 156.8125 389.1875 L 186.0625 389.1875 L 186.0625 314.4375 L 637.8125 314.4375 L 637.8125 555.75 L 663 555.75 L 663 314.4375 L 1141.5625 314.4375 L 1141.5625 208 L 1112.3125 208 L 1108.25 217.75 L 1095.25 229.9375 L 1080.625 238.875 L 1063.5625 245.375 L 1044.0625 252.6875 L 1009.125 261.625 L 913.25 277.875 L 849.875 283.5625 L 782.4375 287.625 L 715 290.0625 L 649.1875 290.0625 L 583.375 290.0625 L 515.9375 287.625 L 448.5 283.5625 L 385.125 277.875 L 328.25 269.75 L 289.25 261.625 L 254.3125 252.6875 L 234.8125 245.375 L 217.75 238.875 L 203.125 229.9375 L 190.125 217.75 L 186.0625 208 L 156.8125 208 Z" stroke="#9797a6" stroke-width="2" fill="#2b2b38"/>
		<path d="M 662.1875 394.0625 L 773.5 394.0625 L 773.5 407.875 L 662.1875 407.875 L 662.1875 394.0625 Z" stroke="#9797a6" stroke-width="2" fill="#2b2b38"/>
		<path d="M 1161.875 407.875 L 1273.1875 407.875 L 1273.1875 421.6875 L 1161.875 421.6875 L 1161.875 407.875 Z" stroke="#9797a6" stroke-width="2" fill="#2b2b38"/>
		<path d="M 184.4375 778.375 L 184.4375 725.5625 L 216.9375 725.5625 L 465.5625 601.25 L 465.5625 739.375 L 216.125 739.375 L 216.125 778.375 L 184.4375 778.375 Z" stroke="#9797a6" stroke-width="2" fill="#2b2b38"/>
		<path d="M 550.0625 697.125 L 623.1875 697.125 L 623.1875 715 L 550.0625 715 L 550.0625 697.125 Z" stroke="#9797a6" stroke-width="2" fill="#2b2b38"/>
		<path d="M 686.5625 796.25 L 759.6875 796.25 L 759.6875 814.125 L 686.5625 814.125 L 686.5625 796.25 Z" stroke="#9797a6" stroke-width="2" fill="#2b2b38"/>
		<path d="M 740.1875 952.25 L 767.8125 932.75 L 806 940.0625 L 888.0625 929.5 L 935.1875 909.1875 L 970.125 918.125 L 1060.3125 886.4375 L 1090.375 895.375 L 1101.75 913.25 L 1130.1875 961.1875 L 836.875 967.6875 L 740.1875 952.25 Z" stroke="#aaaab7" stroke-width="2" fill="#aaaab7"/>
		<path d="M 501 159 L 802 159 L 802 173 L 501 173 L 501 159 Z" stroke="#9797a6" stroke-width="2" fill="#2b2b38"/>
		<path d="M 928 114 L 1011 114 L 1011 128 L 928 128 L 928 114 Z" stroke="#9797a6" stroke-width="2" fill="#2b2b38"/>
		<path d="M 292 114 L 375 114 L 375 128 L 292 128 L 292 114 Z" stroke="#9797a6" stroke-width="2" fill="#2b2b38"/>
		<path d="M 618.3125 916.5 L 661.375 959.5625 L 650 959.5625 L 615.875 925.4375 L 618.3125 916.5 Z" stroke="#aaaab7" stroke-width="2" fill="#aaaab7"/>
		<path d="M 554.125 916.5 L 511.0625 959.5625 L 522.4375 959.5625 L 556.5625 925.4375 L 554.125 916.5 Z" stroke="#aaaab7" stroke-width="2" fill="#aaaab7"/>
		<path d="M -5.6875 979.0625 L 1301.625 979.0625 L 1301.625 -7.3125 L -2.4375 -7.3125 L -5.6875 979.0625 ZM 550.0625 900.25 L 550.0625 950.625 L 25.1875 950.625 L 25.1875 574.4375 L 211.25 574.4375 L 467.1875 446.875 L 467.1875 424.9375 L 211.25 552.5 L 25.1875 552.5 L 25.1875 24.375 L 1274 24.375 L 1274 736.9375 L 1060.3125 950.625 L 623.1875 950.625 L 623.1875 900.25 L 550.0625 900.25 Z" stroke="#9797a6" stroke-width="2" fill="#2b2b38"/>
		<path d="M 1030.25 513.5 L 1030.25 587.4375 L 1057.0625 587.4375 L 1057.0625 535.4375 L 1282.9375 535.4375 L 1282.9375 513.5 L 1030.25 513.5 Z" stroke="#9797a6" stroke-width="2" fill="#2b2b38"/>
		<path d="M 807.625 702 L 834.4375 723.125 L 862.0625 721.5 L 872.625 714.1875 L 893.75 719.875 L 912.4375 738.5625 L 934.375 729.625 L 949.8125 737.75 L 975.8125 724.75 L 1001.8125 739.375 L 1018.875 726.375 L 1030.25 719.875 L 1059.5 726.375 L 1074.125 715.8125 L 1101.75 715 L 1124.5 725.5625 L 1148.0625 704.4375 L 893.75 697.125 L 807.625 702 Z" stroke="#aaaab7" stroke-width="2" fill="#aaaab7"/>
		<path d="M 797.0625 512.6875 L 797.0625 710.125 L 1161.875 710.125 L 1161.875 682.5 L 1013.9675 682.5 L 822.25 651.5966 L 822.25 537.0625 L 950.625 537.0625 L 950.625 512.6875 L 797.0625 512.6875 Z" stroke="#9797a6" stroke-width="2" fill="#2b2b38"/>
	</g>
</svg>